<svg viewBox="0 0 142 48" fill="none" xmlns="http://www.w3.org/2000/svg">
  <rect width="142" height="48" rx="12" fill="#000" />
  <path
    d="M28.95 23.665a5.927 5.927 0 012.835-4.982 6.092 6.092 0 00-4.803-2.59c-2.02-.211-3.98 1.206-5.01 1.206-1.049 0-2.634-1.185-4.341-1.15a6.41 6.41 0 00-3.124.93 6.386 6.386 0 00-2.259 2.344c-2.327 4.018-.591 9.923 1.638 13.171 1.115 1.59 2.419 3.367 4.125 3.304 1.669-.069 2.292-1.061 4.307-1.061 1.996 0 2.581 1.061 4.321 1.021 1.791-.029 2.92-1.597 3.996-3.203a13.14 13.14 0 001.827-3.71 5.75 5.75 0 01-2.553-2.113 5.728 5.728 0 01-.96-3.167zM25.663 13.957a5.836 5.836 0 001.34-4.188 5.971 5.971 0 00-3.86 1.991 5.561 5.561 0 00-1.375 4.034 4.946 4.946 0 003.895-1.837zM50.048 31.872h-5.696L42.984 35.9h-2.412l5.395-14.902h2.507L53.869 35.9h-2.454l-1.367-4.028zm-5.106-1.859h4.515l-2.226-6.537h-.062l-2.227 6.537zM65.52 30.468c0 3.376-1.812 5.545-4.546 5.545a3.702 3.702 0 01-3.428-1.9h-.052v5.38h-2.236V25.036h2.164v1.807h.042a3.86 3.86 0 013.469-1.92c2.765 0 4.588 2.18 4.588 5.546zm-2.298 0c0-2.2-1.14-3.646-2.88-3.646-1.708 0-2.857 1.477-2.857 3.646 0 2.189 1.15 3.655 2.858 3.655 1.739 0 2.879-1.436 2.879-3.655zM77.512 30.468c0 3.376-1.812 5.545-4.546 5.545a3.702 3.702 0 01-3.428-1.9h-.052v5.38h-2.237V25.036h2.165v1.807h.041a3.859 3.859 0 013.47-1.92c2.765 0 4.587 2.18 4.587 5.546zm-2.298 0c0-2.2-1.14-3.646-2.88-3.646-1.708 0-2.858 1.477-2.858 3.646 0 2.189 1.15 3.655 2.859 3.655 1.739 0 2.879-1.436 2.879-3.655zM85.437 31.748c.166 1.477 1.605 2.448 3.573 2.448 1.884 0 3.24-.97 3.24-2.303 0-1.157-.817-1.85-2.754-2.324l-1.937-.465c-2.744-.661-4.018-1.94-4.018-4.017 0-2.572 2.247-4.337 5.438-4.337 3.157 0 5.322 1.765 5.395 4.337h-2.257c-.136-1.488-1.368-2.385-3.17-2.385-1.801 0-3.034.908-3.034 2.23 0 1.053.787 1.673 2.713 2.148l1.647.403c3.066.723 4.34 1.951 4.34 4.13 0 2.789-2.227 4.535-5.77 4.535-3.313 0-5.55-1.705-5.695-4.4h2.289zM99.44 22.464v2.571h2.071v1.766h-2.072v5.99c0 .93.415 1.364 1.326 1.364.246-.005.491-.022.735-.052v1.755c-.409.077-.825.111-1.242.104-2.206 0-3.066-.827-3.066-2.934v-6.227h-1.584v-1.766h1.584v-2.571h2.247zM102.711 30.468c0-3.419 2.019-5.567 5.167-5.567 3.159 0 5.169 2.148 5.169 5.567 0 3.428-1.999 5.566-5.169 5.566-3.168 0-5.167-2.138-5.167-5.566zm8.057 0c0-2.345-1.078-3.729-2.89-3.729s-2.888 1.395-2.888 3.729c0 2.354 1.076 3.728 2.888 3.728 1.812 0 2.89-1.374 2.89-3.728zM114.89 25.035h2.133v1.85h.052a2.603 2.603 0 012.621-1.963c.257-.002.514.026.766.083v2.085a3.136 3.136 0 00-1.005-.134 2.254 2.254 0 00-2.33 2.5V35.9h-2.237V25.035zM130.773 32.709c-.301 1.972-2.227 3.325-4.692 3.325-3.169 0-5.136-2.117-5.136-5.514 0-3.408 1.978-5.619 5.042-5.619 3.015 0 4.91 2.065 4.91 5.36v.764h-7.695v.134a2.824 2.824 0 00.769 2.199 2.853 2.853 0 002.162.879 2.468 2.468 0 002.516-1.529h2.124zm-7.56-3.243h5.447a2.607 2.607 0 00-.732-1.961 2.622 2.622 0 00-1.941-.796 2.766 2.766 0 00-1.963.802 2.746 2.746 0 00-.811 1.955zM44.662 9.781a3.185 3.185 0 012.534.982 3.166 3.166 0 01.845 2.576c0 2.288-1.24 3.603-3.379 3.603H42.07v-7.16h2.593zm-1.478 6.148h1.354a2.263 2.263 0 001.798-.726 2.251 2.251 0 00.57-1.85 2.253 2.253 0 00-1.392-2.398 2.27 2.27 0 00-.976-.162h-1.354v5.136zM49.3 14.237a2.552 2.552 0 01.656-1.965 2.568 2.568 0 012.938-.62 2.568 2.568 0 011.397 1.534c.113.338.154.696.12 1.051a2.554 2.554 0 01-1.516 2.59 2.575 2.575 0 01-2.94-.621 2.56 2.56 0 01-.655-1.969zm4.011 0c0-1.17-.528-1.856-1.454-1.856-.93 0-1.452.685-1.452 1.856 0 1.181.523 1.86 1.452 1.86.926 0 1.454-.684 1.454-1.86zM61.205 16.942h-1.11l-1.12-3.98h-.084l-1.115 3.98h-1.099l-1.493-5.404h1.084l.971 4.123h.08l1.114-4.123h1.026l1.114 4.123h.084l.967-4.123h1.069l-1.488 5.404zM63.95 11.538h1.029v.858h.08a1.62 1.62 0 011.617-.962 1.765 1.765 0 011.815 1.23c.078.252.099.519.06.78v3.497h-1.07v-3.23c0-.868-.378-1.3-1.168-1.3a1.247 1.247 0 00-1.236.843c-.058.169-.077.349-.058.526v3.162h-1.07v-5.404zM70.255 9.429h1.069v7.513h-1.07V9.429zM72.811 14.237a2.553 2.553 0 011.517-2.585 2.574 2.574 0 013.475 1.534c.113.338.154.696.12 1.051a2.556 2.556 0 01-1.516 2.59 2.575 2.575 0 01-2.941-.621 2.56 2.56 0 01-.655-1.969zm4.011 0c0-1.17-.527-1.856-1.454-1.856-.929 0-1.452.685-1.452 1.856 0 1.181.523 1.86 1.453 1.86.926 0 1.453-.684 1.453-1.86zM79.048 15.413c0-.972.726-1.533 2.015-1.613l1.468-.084v-.466c0-.571-.378-.893-1.11-.893-.596 0-1.01.218-1.129.6h-1.035c.11-.928.985-1.523 2.214-1.523 1.358 0 2.125.674 2.125 1.816v3.692h-1.03v-.76h-.084a1.822 1.822 0 01-1.628.849 1.643 1.643 0 01-1.663-.956 1.628 1.628 0 01-.143-.662zm3.483-.461V14.5l-1.323.084c-.746.05-1.085.303-1.085.78 0 .486.423.769 1.005.769a1.28 1.28 0 001.268-.692c.078-.152.123-.319.135-.49zM85.001 14.237c0-1.707.88-2.789 2.25-2.789a1.79 1.79 0 011.66.948h.08V9.43h1.07v7.513h-1.025v-.854h-.084a1.88 1.88 0 01-1.702.942c-1.378 0-2.249-1.081-2.249-2.793zm1.105 0c0 1.146.541 1.836 1.448 1.836.9 0 1.458-.7 1.458-1.83 0-1.127-.563-1.837-1.459-1.837-.9 0-1.447.695-1.447 1.831zM94.486 14.237a2.553 2.553 0 011.517-2.584 2.574 2.574 0 012.938.619 2.558 2.558 0 01.656 1.965 2.552 2.552 0 01-.654 1.969 2.568 2.568 0 01-2.941.62 2.568 2.568 0 01-1.398-1.535 2.552 2.552 0 01-.118-1.054zm4.011 0c0-1.17-.528-1.856-1.454-1.856-.93 0-1.452.685-1.452 1.856 0 1.181.523 1.86 1.452 1.86.926 0 1.454-.684 1.454-1.86zM101.031 11.538h1.03v.858h.08a1.626 1.626 0 011.617-.963 1.761 1.761 0 011.875 2.01v3.498h-1.069v-3.23c0-.868-.378-1.3-1.169-1.3a1.247 1.247 0 00-1.236.843c-.057.169-.077.349-.058.526v3.162h-1.07v-5.404zM111.677 10.193v1.37h1.174v.898h-1.174v2.778c0 .566.234.814.766.814.136 0 .273-.008.408-.024v.888a3.517 3.517 0 01-.582.054c-1.189 0-1.663-.417-1.663-1.459v-3.051h-.86v-.898h.86v-1.37h1.071zM114.311 9.429h1.06v2.977h.085a1.662 1.662 0 011.652-.968 1.79 1.79 0 011.799 1.241c.079.25.102.514.067.774v3.489h-1.07v-3.226c0-.863-.403-1.3-1.159-1.3a1.272 1.272 0 00-1.002.368 1.264 1.264 0 00-.362 1.002v3.156h-1.07V9.429zM125.21 15.482c-.145.494-.46.922-.889 1.207-.43.286-.946.412-1.459.357a2.47 2.47 0 01-1.899-.817 2.451 2.451 0 01-.604-1.972 2.48 2.48 0 01.603-1.98 2.5 2.5 0 011.895-.843c1.508 0 2.417 1.027 2.417 2.724v.372h-3.826v.06a1.436 1.436 0 00.863 1.432c.183.078.381.118.58.116a1.305 1.305 0 001.289-.656h1.03zm-3.762-1.74h2.737a1.297 1.297 0 00-.802-1.301 1.306 1.306 0 00-.532-.1 1.393 1.393 0 00-.997.405 1.384 1.384 0 00-.406.995z"
    fill="#fff" />
</svg>
